<svg id="certificate" xmlns="http://www.w3.org/2000/svg" width="42.236" height="36.472" viewBox="0 0 42.236 36.472">
  <path id="Path_54" data-name="Path 54" d="M40.792,34.936H1.444A1.445,1.445,0,0,0,0,36.38v5.081a.619.619,0,0,0,1.237,0V36.38a.206.206,0,0,1,.206-.206H40.792A.206.206,0,0,1,41,36.38V66.55a.206.206,0,0,1-.206.206H32.864V65.469h6.223a.619.619,0,0,0,.619-.619V58.371a.619.619,0,0,0-1.237,0v5.86h-5.6V61.487l.059.005a1.893,1.893,0,0,0,1.595-.342,1.9,1.9,0,0,0,.341-1.6.939.939,0,0,1,.428-1.055,1.6,1.6,0,0,0,0-2.8.939.939,0,0,1-.428-1.055c.121-1.384-.525-2.062-1.936-1.938a.934.934,0,0,1-1.051-.428,1.6,1.6,0,0,0-2.8,0,.933.933,0,0,1-1.051.428c-1.385-.122-2.06.528-1.936,1.938a.939.939,0,0,1-.428,1.055,1.6,1.6,0,0,0,0,2.8.939.939,0,0,1,.428,1.055c-.13,1.482.578,2.055,2,1.933v2.745H3.768V38.7h34.7V55.072a.619.619,0,0,0,1.237,0V38.079a.619.619,0,0,0-.619-.619H3.149a.619.619,0,0,0-.619.619V64.85a.619.619,0,0,0,.619.619h24.93v1.287H1.444a.206.206,0,0,1-.206-.206V44.6A.619.619,0,0,0,0,44.6V66.55a1.445,1.445,0,0,0,1.444,1.444H28.079v2.8a.619.619,0,0,0,.88.561l1.513-.7,1.513.7a.631.631,0,0,0,.88-.561v-2.8h7.928a1.445,1.445,0,0,0,1.444-1.444V36.38A1.445,1.445,0,0,0,40.792,34.936ZM27.912,60.259c-.619.055-.649.021-.6-.6a2.135,2.135,0,0,0-.869-2.114c-.5-.417-.5-.483,0-.9a2.134,2.134,0,0,0,.869-2.114c-.054-.619-.024-.652.6-.6a2.128,2.128,0,0,0,2.112-.871c.416-.5.479-.5.9,0a2.129,2.129,0,0,0,2.112.871c.619-.055.649-.021.6.6a2.134,2.134,0,0,0,.869,2.114c.5.417.5.483,0,.9a2.134,2.134,0,0,0-.869,2.114c.054.619.024.652-.6.6a2.585,2.585,0,0,0-1.218.088,2.468,2.468,0,0,0-.895.783,2.288,2.288,0,0,1-.448.458,2.29,2.29,0,0,1-.448-.458,2.468,2.468,0,0,0-.895-.783,2.709,2.709,0,0,0-1.217-.088Zm2.821,9.15a.619.619,0,0,0-.522,0l-.894.416V62.206a1.383,1.383,0,0,0,2.31,0v7.618Z" transform="translate(0 -34.936)" fill="#7367f0"/>
  <path id="Path_55" data-name="Path 55" d="M90.785,129.962h28.284a.821.821,0,0,0,0-1.641H90.785A.821.821,0,0,0,90.785,129.962Z" transform="translate(-84.197 -120.706)" fill="#7367f0"/>
  <path id="Path_56" data-name="Path 56" d="M112.562,174.759c0-.453-.228-.82-.51-.82H90.484c-.659,0-.659,1.641,0,1.641h21.568C112.334,175.58,112.562,175.213,112.562,174.759Z" transform="translate(-80.146 -162.604)" fill="#7367f0"/>
  <path id="Path_57" data-name="Path 57" d="M111.339,220.376a.82.82,0,0,0-.82-.82H90.786a.821.821,0,0,0,0,1.641h19.732A.82.82,0,0,0,111.339,220.376Z" transform="translate(-84.058 -204.501)" fill="#7367f0"/>
  <path id="Path_58" data-name="Path 58" d="M103.138,273.71l-1.342,0c-.861,0-1.334-.229-1.51-1.141-.16-.833-1.362-.727-1.582,0-.1.322-.59,1.244-1.02,1.168-.228-.04-.327-.391-.412-.573a6.993,6.993,0,0,1-.386-1.106c-.432-1.59-.518-3.25-.788-4.87-.157-.939-1.589-.674-1.612.218a25.106,25.106,0,0,1-1.549,8.306c-.375.988,1.21,1.416,1.582.436a23.2,23.2,0,0,0,.94-3.145,8.32,8.32,0,0,0,.47,1.141,1.952,1.952,0,0,0,2.5,1.086,2.8,2.8,0,0,0,1-.733c.776.9,1.931.855,3.009.853q2.436,0,4.873-.01a.821.821,0,0,0,0-1.641Z" transform="translate(-86.151 -249.135)" fill="#7367f0"/>
  <path id="Path_59" data-name="Path 59" d="M343.3,280.7a3.2,3.2,0,1,0-3.2-3.2A3.208,3.208,0,0,0,343.3,280.7Zm0-4.768a1.564,1.564,0,1,1-1.564,1.564A1.566,1.566,0,0,1,343.3,275.927Z" transform="translate(-313.221 -255.525)" fill="#7367f0"/>
</svg>
