<svg xmlns="http://www.w3.org/2000/svg" width="30" height="31" viewBox="0 0 30 31">
  <g id="Group_2267" data-name="Group 2267" transform="translate(-0.099)">
    <ellipse id="Ellipse_1424" data-name="Ellipse 1424" cx="15" cy="15.5" rx="15" ry="15.5" transform="translate(0.099)" fill="#efeefd"/>
    <g id="trash" transform="translate(9.58 8.494)">
      <path id="Path_2060" data-name="Path 2060" d="M10.842,2.976l-.294-.881a.82.82,0,0,0-.779-.561H7.3v-.8A.73.73,0,0,0,6.569,0H4.306a.73.73,0,0,0-.729.729v.8H1.106a.82.82,0,0,0-.779.561l-.294.881a.66.66,0,0,0,.626.869H.967l.676,8.365a1.21,1.21,0,0,0,1.2,1.107H8.171a1.21,1.21,0,0,0,1.2-1.107l.676-8.365h.17a.66.66,0,0,0,.626-.869ZM4.358.78h2.16v.754H4.358ZM8.592,12.147a.426.426,0,0,1-.421.39H2.842a.426.426,0,0,1-.421-.39l-.671-8.3H9.263ZM.827,3.064l.241-.723a.041.041,0,0,1,.039-.028H9.77a.041.041,0,0,1,.039.028l.241.723Zm0,0" transform="translate(0 0)" fill="#7367f0"/>
      <path id="Path_2061" data-name="Path 2061" d="M268.666,173.389h.021a.39.39,0,0,0,.389-.37l.366-7.033a.39.39,0,1,0-.779-.041l-.366,7.033A.39.39,0,0,0,268.666,173.389Zm0,0" transform="translate(-261.318 -161.27)" fill="#7367f0"/>
      <path id="Path_2062" data-name="Path 2062" d="M106.178,173.023a.39.39,0,0,0,.389.369h.022a.39.39,0,0,0,.368-.411l-.384-7.033a.39.39,0,1,0-.779.042Zm0,0" transform="translate(-103.042 -161.272)" fill="#7367f0"/>
      <path id="Path_2063" data-name="Path 2063" d="M194.644,173.392a.39.39,0,0,0,.39-.39v-7.033a.39.39,0,0,0-.78,0V173A.39.39,0,0,0,194.644,173.392Zm0,0" transform="translate(-189.202 -161.272)" fill="#7367f0"/>
    </g>
  </g>
</svg>
