<svg id="documents" xmlns="http://www.w3.org/2000/svg" width="29.952" height="39.077" viewBox="0 0 29.952 39.077">
  <path id="Path_60" data-name="Path 60" d="M47.815,7.936h-2.8v-2.8a.575.575,0,0,0-.575-.575h-18.6a.559.559,0,0,0-.111.011h0a.578.578,0,0,0-.142.051l-.029.016a.576.576,0,0,0-.124.092l-6.82,6.822a.561.561,0,0,0-.091.123L18.5,11.7a.59.59,0,0,0-.05.14v.008a.564.564,0,0,0-.011.106V39.68a.575.575,0,0,0,.575.575h2.8v2.8a.575.575,0,0,0,.575.575H47.816a.575.575,0,0,0,.575-.575V8.511a.575.575,0,0,0-.576-.575ZM25.263,6.521v4.86H20.4Zm-5.674,6.01h6.248a.575.575,0,0,0,.575-.575v-.892H39.2a.575.575,0,0,0,0-1.15H26.413V5.707H43.861v33.4H19.589ZM47.24,42.484H22.968V40.256H44.436a.575.575,0,0,0,.575-.575V9.086H47.24Z" transform="translate(-18.439 -4.557)" fill="#7367f0"/>
  <path id="Path_61" data-name="Path 61" d="M35.084,46.475H53.946a.725.725,0,1,0,0-1.451H35.084a.725.725,0,0,0,0,1.451Z" transform="translate(-30.716 -31.828)" fill="#7367f0"/>
  <path id="Path_62" data-name="Path 62" d="M35.084,58.561H53.946a.725.725,0,0,0,0-1.451H35.084a.725.725,0,0,0,0,1.451Z" transform="translate(-30.716 -39.973)" fill="#7367f0"/>
  <path id="Path_63" data-name="Path 63" d="M35.084,70.651H53.946a.725.725,0,0,0,0-1.451H35.084a.725.725,0,1,0,0,1.451Z" transform="translate(-30.716 -48.12)" fill="#7367f0"/>
  <path id="Path_64" data-name="Path 64" d="M35.084,82.732H53.946a.725.725,0,0,0,0-1.451H35.084a.725.725,0,1,0,0,1.451Z" transform="translate(-30.716 -56.262)" fill="#7367f0"/>
  <path id="Path_65" data-name="Path 65" d="M35.084,94.818H53.946a.725.725,0,0,0,0-1.451H35.084a.725.725,0,0,0,0,1.451Z" transform="translate(-30.716 -64.407)" fill="#7367f0"/>
  <path id="Path_66" data-name="Path 66" d="M35.084,34.389H53.946a.725.725,0,0,0,0-1.451H35.084a.725.725,0,0,0,0,1.451Z" transform="translate(-30.716 -23.683)" fill="#7367f0"/>
</svg>
