<svg xmlns="http://www.w3.org/2000/svg" width="13.632" height="13.467" viewBox="0 0 13.632 13.467">
  <g id="edit" transform="translate(0.15 0.15)">
    <path id="Path_2058" data-name="Path 2058" d="M12.214,46.153a.33.33,0,0,0-.33.33v2.926a.99.99,0,0,1-.989.989H1.648a.99.99,0,0,1-.989-.989V40.82a.99.99,0,0,1,.989-.989H4.574a.33.33,0,1,0,0-.659H1.648A1.65,1.65,0,0,0,0,40.82v8.589a1.65,1.65,0,0,0,1.648,1.648H10.9a1.65,1.65,0,0,0,1.648-1.648V46.482A.33.33,0,0,0,12.214,46.153Zm0,0" transform="translate(0 -37.89)" fill="#7367f0" stroke="#7367f0" stroke-width="0.3"/>
    <path id="Path_2059" data-name="Path 2059" d="M117.038.7a1.483,1.483,0,0,0-2.1,0l-5.88,5.88a.33.33,0,0,0-.085.145L108.2,9.512a.33.33,0,0,0,.406.406l2.792-.773a.33.33,0,0,0,.145-.085l5.88-5.88a1.485,1.485,0,0,0,0-2.1Zm-7.259,6.094,4.812-4.812,1.552,1.552L111.33,8.341Zm-.31.622,1.24,1.24-1.715.475Zm7.49-4.7-.35.35-1.552-1.552.35-.35a.824.824,0,0,1,1.165,0l.387.387A.825.825,0,0,1,116.958,2.713Zm0,0" transform="translate(-104.624 -0.261)" fill="#7367f0" stroke="#7367f0" stroke-width="0.3"/>
  </g>
</svg>
