<svg id="list" xmlns="http://www.w3.org/2000/svg" width="30.701" height="39.077" viewBox="0 0 30.701 39.077">
  <g id="Group_16" data-name="Group 16" transform="translate(0 0)">
    <g id="Group_15" data-name="Group 15" transform="translate(0 0)">
      <path id="Path_46" data-name="Path 46" d="M73.831,5.12H70.3V3.538c0-.512-.558-.744-1.07-.744H66.481A4.161,4.161,0,0,0,62.341,0,4.233,4.233,0,0,0,58.2,2.794H55.5c-.512,0-1.023.233-1.023.744V5.12H50.944a3.954,3.954,0,0,0-3.907,3.768V35.542a3.743,3.743,0,0,0,3.907,3.535H73.831a3.743,3.743,0,0,0,3.907-3.535V8.888A3.954,3.954,0,0,0,73.831,5.12ZM56.34,4.655H58.9a1.024,1.024,0,0,0,.884-.837,2.7,2.7,0,0,1,2.558-2.093,2.651,2.651,0,0,1,2.512,2.093,1.023,1.023,0,0,0,.93.837h2.652V8.376H56.34ZM75.878,35.542a1.887,1.887,0,0,1-2.047,1.675H50.944A1.887,1.887,0,0,1,48.9,35.542V8.888a2.093,2.093,0,0,1,2.047-1.907H54.48V9.353a.977.977,0,0,0,1.023.884H69.226a1.023,1.023,0,0,0,1.07-.884V6.981h3.535a2.093,2.093,0,0,1,2.047,1.907V35.542Z" transform="translate(-47.037 0)" fill="#7367f0"/>
      <path id="Path_47" data-name="Path 47" d="M107.675,230.65a1.086,1.086,0,0,0-1.52-.054l-3.474,3.311-1.466-1.52a1.086,1.086,0,0,0-1.52-.054,1.14,1.14,0,0,0,0,1.574l2.225,2.28a.977.977,0,0,0,.76.326,1.085,1.085,0,0,0,.76-.326l4.234-4.017a1.031,1.031,0,0,0,.063-1.457C107.718,230.691,107.7,230.67,107.675,230.65Z" transform="translate(-94.967 -210.344)" fill="#7367f0"/>
      <path id="Path_48" data-name="Path 48" d="M212.118,256.034H199.634a1.086,1.086,0,1,0,0,2.171h12.484a1.086,1.086,0,1,0,0-2.171Z" transform="translate(-186.616 -233.428)" fill="#7367f0"/>
      <path id="Path_49" data-name="Path 49" d="M107.675,147.058a1.086,1.086,0,0,0-1.52-.054l-3.474,3.311-1.466-1.52a1.086,1.086,0,0,0-1.52-.054,1.14,1.14,0,0,0,0,1.574l2.225,2.28a.977.977,0,0,0,.76.326,1.085,1.085,0,0,0,.76-.326l4.234-4.017a1.031,1.031,0,0,0,.063-1.457Q107.708,147.088,107.675,147.058Z" transform="translate(-94.967 -133.999)" fill="#7367f0"/>
      <path id="Path_50" data-name="Path 50" d="M212.118,172.442H199.634a1.086,1.086,0,1,0,0,2.171h12.484a1.086,1.086,0,1,0,0-2.171Z" transform="translate(-186.616 -157.216)" fill="#7367f0"/>
      <path id="Path_51" data-name="Path 51" d="M107.675,314.241a1.086,1.086,0,0,0-1.52-.054l-3.474,3.311-1.466-1.52a1.086,1.086,0,0,0-1.52-.054,1.14,1.14,0,0,0,0,1.574l2.225,2.28a.977.977,0,0,0,.76.326,1.085,1.085,0,0,0,.76-.326l4.234-4.017a1.031,1.031,0,0,0,.063-1.457Q107.708,314.271,107.675,314.241Z" transform="translate(-94.967 -287.811)" fill="#7367f0"/>
      <path id="Path_52" data-name="Path 52" d="M212.118,339.626H199.634a1.086,1.086,0,1,0,0,2.171h12.484a1.086,1.086,0,1,0,0-2.171Z" transform="translate(-186.616 -309.639)" fill="#7367f0"/>
    </g>
  </g>
</svg>
