<svg id="mail_1_" data-name="mail (1)" xmlns="http://www.w3.org/2000/svg" width="44.461" height="33.867" viewBox="0 0 44.461 33.867">
  <g id="Group_2" data-name="Group 2" transform="translate(0 0)">
    <path id="Path_6" data-name="Path 6" d="M40.554,61H3.908A3.914,3.914,0,0,0,0,64.908V90.959a3.914,3.914,0,0,0,3.908,3.908H40.554a3.914,3.914,0,0,0,3.908-3.908V64.908A3.914,3.914,0,0,0,40.554,61Zm-.54,2.605-17.7,17.7L4.46,63.605ZM2.605,90.42V65.435L15.151,77.873Zm1.842,1.842L17,79.708l4.4,4.361a1.3,1.3,0,0,0,1.838,0l4.289-4.289L40.014,92.262ZM41.856,90.42,29.37,77.933,41.856,65.447Z" transform="translate(0 -61)" fill="#7367f0"/>
  </g>
</svg>
