<svg xmlns="http://www.w3.org/2000/svg" width="7" height="16.593" viewBox="0 0 7 16.593">
  <g id="thermometer" transform="translate(-73.002)">
    <path id="Path_85" data-name="Path 85" d="M78.608,10.3V2.106a2.106,2.106,0,1,0-4.213,0V10.3a3.5,3.5,0,1,0,4.213,0ZM76.5,15.62a2.528,2.528,0,0,1-1.359-4.66.486.486,0,0,0,.224-.41V2.106a1.134,1.134,0,0,1,2.269,0v8.444a.486.486,0,0,0,.224.41A2.528,2.528,0,0,1,76.5,15.62Z" fill="#7367f0"/>
    <path id="Path_86" data-name="Path 86" d="M138.845,58.776V50.423c0-.233-.318-.423-.711-.423s-.711.189-.711.423v8.354c-.827.174-1.421.644-1.421,1.195,0,.7.956,1.267,2.132,1.267s2.132-.569,2.132-1.267C140.266,59.42,139.672,58.951,138.845,58.776Zm-.711,1.617c-.392,0-.711-.19-.711-.422s.319-.423.711-.423.711.19.711.423S138.526,60.393,138.134,60.393Z" transform="translate(-61.632 -47.631)" fill="#7367f0"/>
  </g>
</svg>
