<svg id="vessel" xmlns="http://www.w3.org/2000/svg" width="60.4" height="31.262" viewBox="0 0 60.4 31.262">
  <g id="Group_17" data-name="Group 17" transform="translate(0 0)">
    <path id="Path_53" data-name="Path 53" d="M59.983,142.13a1.57,1.57,0,0,0-1.149-.5H40.664a5.788,5.788,0,0,0-3.765,1.393,4.018,4.018,0,0,1-2.613.967H16.928v-1.475a.3.3,0,0,1,.295-.295h17.7a.885.885,0,0,0,.885-.885v-4.719a.885.885,0,0,0-1.77,0v3.834H28.725v-6.193a.3.3,0,0,1,.295-.295h11.8a.3.3,0,0,1,.295.295v4.719a.885.885,0,1,0,1.77,0v-4.719a2.067,2.067,0,0,0-2.064-2.064H38.163v-3.372h.885a.885.885,0,1,0,0-1.77h-.885v-1.484A2.067,2.067,0,0,0,36.1,123.5H33.739a2.067,2.067,0,0,0-2.064,2.064v1.484H30.79a.885.885,0,1,0,0,1.77h.885v3.372H29.02a2.067,2.067,0,0,0-2.064,2.064v6.193H20.467v-1.475a3.244,3.244,0,1,0-6.488,0v1.475H10.145a2.067,2.067,0,0,0-2.064,2.064v1.475H2.065A2.064,2.064,0,0,0,.015,146.3,30.059,30.059,0,0,0,.9,150.7a5.605,5.605,0,0,0,5.388,4.059h.222a.885.885,0,1,0,0-1.77H6.289a3.829,3.829,0,0,1-3.684-2.769,28.286,28.286,0,0,1-.834-4.141.285.285,0,0,1,.07-.225.3.3,0,0,1,.224-.1h32.22a5.788,5.788,0,0,0,3.765-1.393,4.018,4.018,0,0,1,2.613-.967H56.519a10.971,10.971,0,0,0-7.124,6.49,3.43,3.43,0,0,0,.31,3.1h-7.58a3.9,3.9,0,0,1-3.4-5.808l.037-.065a.885.885,0,0,0-1.546-.861l-.035.063a5.618,5.618,0,0,0,.056,5.638,5.772,5.772,0,0,0,.775,1.033H10.065a.885.885,0,1,0,0,1.77H50.109a1.564,1.564,0,0,0,1.205-2.56,1.663,1.663,0,0,1-.272-1.667,9.18,9.18,0,0,1,7.877-5.778,1.565,1.565,0,0,0,1.065-2.627ZM33.444,125.564a.3.3,0,0,1,.295-.295H36.1a.3.3,0,0,1,.295.295v1.484H33.444Zm0,3.254h2.949v3.372H33.444ZM15.158,142.513v1.475H9.85v-1.475a.3.3,0,0,1,.295-.295h5.037A2.061,2.061,0,0,0,15.158,142.513Zm.59-3.539a1.475,1.475,0,1,1,2.949,0v1.475H15.748Z" transform="translate(0 -123.5)" fill="#7367f0"/>
  </g>
</svg>
