<svg id="analysis" xmlns="http://www.w3.org/2000/svg" width="25" height="30" viewBox="0 0 25 30">
  <path id="Path_38" data-name="Path 38" d="M23.875,30H5.125A3.129,3.129,0,0,1,2,26.875V3.125A3.129,3.129,0,0,1,5.125,0h18.75A3.129,3.129,0,0,1,27,3.125v23.75A3.129,3.129,0,0,1,23.875,30ZM5.125,1.25A1.877,1.877,0,0,0,3.25,3.125v23.75A1.877,1.877,0,0,0,5.125,28.75h18.75a1.877,1.877,0,0,0,1.875-1.875V3.125A1.877,1.877,0,0,0,23.875,1.25Z" transform="translate(-2)" fill="#fff"/>
  <path id="Path_39" data-name="Path 39" d="M19.141,12.256H16.628a.628.628,0,1,1,0-1.256h2.513a.628.628,0,0,1,0,1.256Z" transform="translate(1.462 2.747)" fill="#fff"/>
  <path id="Path_40" data-name="Path 40" d="M19.141,9.256H16.628a.628.628,0,1,1,0-1.256h2.513a.628.628,0,0,1,0,1.256Z" transform="translate(1.462 1.998)" fill="#fff"/>
  <path id="Path_41" data-name="Path 41" d="M19.141,15.256H16.628a.628.628,0,1,1,0-1.256h2.513a.628.628,0,0,1,0,1.256Z" transform="translate(1.462 3.496)" fill="#fff"/>
  <path id="Path_42" data-name="Path 42" d="M19.141,18.256H16.628a.628.628,0,1,1,0-1.256h2.513a.628.628,0,0,1,0,1.256Z" transform="translate(1.462 4.245)" fill="#fff"/>
  <path id="Path_43" data-name="Path 43" d="M21.839,21.256H5.624a.628.628,0,0,1,0-1.256H21.839a.628.628,0,0,1,0,1.256Z" transform="translate(-1.231 4.975)" fill="#fff"/>
  <path id="Path_44" data-name="Path 44" d="M11.281,20.563a6.281,6.281,0,1,1,6.281-6.281A6.289,6.289,0,0,1,11.281,20.563Zm0-11.307a5.025,5.025,0,1,0,5.025,5.025A5.03,5.03,0,0,0,11.281,9.256Z" transform="translate(-1.269 1.964)" fill="#fff"/>
  <path id="Path_45" data-name="Path 45" d="M6.946,18.907A.628.628,0,0,1,6.5,17.835l3.814-3.814V8.628a.628.628,0,1,1,1.256,0v5.653a.633.633,0,0,1-.183.445l-4,4A.631.631,0,0,1,6.946,18.907Z" transform="translate(-0.928 1.972)" fill="#fff"/>
</svg>
