<svg xmlns="http://www.w3.org/2000/svg" width="30.012" height="30" viewBox="0 0 30.012 30">
  <g id="dashboard" style="isolation: isolate">
    <path id="Path_7" data-name="Path 7" d="M.446,5.482a.413.413,0,0,0,.446-.369V4.443H27.268v3.5a.454.454,0,0,0,.892,0V1.653A1.737,1.737,0,0,0,26.287.1H1.873A1.737,1.737,0,0,0,0,1.653V5.113a.413.413,0,0,0,.446.369ZM1.873.841H26.287a.91.91,0,0,1,.981.813V3.7H.892V1.653A.91.91,0,0,1,1.873.841Z" transform="translate(0 -0.102)" fill="#fff"/>
    <path id="Path_8" data-name="Path 8" d="M8.14,142.683H1.551a.814.814,0,0,1-.813-.813V126.683a.369.369,0,0,0-.739,0V141.87a1.553,1.553,0,0,0,1.551,1.551H8.14a.369.369,0,1,0,0-.739Z" transform="translate(0 -115.263)" fill="#fff"/>
    <path id="Path_9" data-name="Path 9" d="M201.984,181.811H189.528a1.737,1.737,0,0,0-1.735,1.735v4.8a.369.369,0,1,0,.739,0v-2.479h14.449v10.425a1,1,0,0,1-1,1H189.528a1,1,0,0,1-1-1v-6.373a.369.369,0,0,0-.739,0v6.373a1.737,1.737,0,0,0,1.735,1.735h12.456a1.737,1.737,0,0,0,1.735-1.735V183.546A1.737,1.737,0,0,0,201.984,181.811Zm-13.453,3.317v-1.581a1,1,0,0,1,1-1h12.456a1,1,0,0,1,1,1v1.581Z" transform="translate(-173.708 -168.027)" fill="#fff"/>
    <path id="Path_10" data-name="Path 10" d="M38.829,37.041h.277a.369.369,0,0,0,0-.739h-.277a.369.369,0,0,0,0,.739Z" transform="translate(-36.566 -34.519)" fill="#fff"/>
    <path id="Path_11" data-name="Path 11" d="M91,37.041h.277a.369.369,0,0,0,0-.739H91a.369.369,0,1,0,0,.739Z" transform="translate(-85.269 -34.519)" fill="#fff"/>
    <path id="Path_12" data-name="Path 12" d="M143.161,37.041h.277a.369.369,0,0,0,0-.739h-.277a.369.369,0,1,0,0,.739Z" transform="translate(-134.352 -34.519)" fill="#fff"/>
    <path id="Path_13" data-name="Path 13" d="M248.128,305.689h-1.555a.369.369,0,1,0,0,.739h1.555a1.127,1.127,0,0,0,1.126-1.126v-1.568a1.127,1.127,0,0,0-1.126-1.126h-8.7a1.127,1.127,0,0,0-1.126,1.126V305.3a1.127,1.127,0,0,0,1.126,1.126H245a.369.369,0,1,0,0-.739h-5.571a.388.388,0,0,1-.387-.387v-1.568a.388.388,0,0,1,.387-.387h8.7a.388.388,0,0,1,.387.387V305.3A.388.388,0,0,1,248.128,305.689Z" transform="translate(-221.729 -284.336)" fill="#fff"/>
    <path id="Path_14" data-name="Path 14" d="M63.057,135.79H78.718a.369.369,0,0,0,0-.739H63.057a.819.819,0,0,0-.818.818v4.606a.819.819,0,0,0,.818.818h3.327a.369.369,0,1,0,0-.739H63.057a.08.08,0,0,1-.08-.08v-4.606A.08.08,0,0,1,63.057,135.79Z" transform="translate(-59.174 -126.707)" fill="#fff"/>
    <path id="Path_15" data-name="Path 15" d="M66.372,293.608H62.608a.369.369,0,1,0,0,.739h3.764a.369.369,0,1,0,0-.739Z" transform="translate(-59.174 -276.293)" fill="#fff"/>
    <path id="Path_16" data-name="Path 16" d="M66.372,349.831H62.608a.369.369,0,0,0,0,.739h3.764a.369.369,0,0,0,0-.739Z" transform="translate(-59.174 -329.199)" fill="#fff"/>
    <path id="Path_17" data-name="Path 17" d="M238.671,430.672h10.213a.369.369,0,1,0,0-.739H238.671a.369.369,0,1,0,0,.739Z" transform="translate(-221.729 -403.93)" fill="#fff"/>
  </g>
</svg>
