<svg xmlns="http://www.w3.org/2000/svg" width="23.57" height="30" viewBox="0 0 23.57 30">
  <g id="list" transform="translate(-47.037 0)">
    <g id="Group_16" data-name="Group 16" transform="translate(47.037 0)">
      <g id="Group_15" data-name="Group 15" transform="translate(0 0)">
        <path id="Path_46" data-name="Path 46" d="M67.607,3.931H64.893V2.717c0-.393-.429-.571-.821-.571H61.965A3.194,3.194,0,0,0,58.786,0a3.25,3.25,0,0,0-3.178,2.143H53.537c-.393,0-.786.179-.786.571V3.931H50.037a3.036,3.036,0,0,0-3,2.893V27.286a2.873,2.873,0,0,0,3,2.714h17.57a2.873,2.873,0,0,0,3-2.714V6.823A3.036,3.036,0,0,0,67.607,3.931ZM54.179,3.574h1.964a.786.786,0,0,0,.679-.643,2.071,2.071,0,0,1,1.964-1.607,2.035,2.035,0,0,1,1.928,1.607.786.786,0,0,0,.714.643h2.036V6.431H54.179Zm15,23.713a1.449,1.449,0,0,1-1.571,1.286H50.037a1.449,1.449,0,0,1-1.571-1.286V6.823a1.607,1.607,0,0,1,1.571-1.464h2.714V7.181a.75.75,0,0,0,.786.679H64.071a.786.786,0,0,0,.821-.679V5.359h2.714a1.607,1.607,0,0,1,1.571,1.464V27.286Z" transform="translate(-47.037 0)" fill="#fff"/>
        <path id="Path_47" data-name="Path 47" d="M105.749,230.571a.833.833,0,0,0-1.167-.042l-2.667,2.542L100.79,231.9a.833.833,0,0,0-1.167-.042.875.875,0,0,0,0,1.208l1.708,1.75a.75.75,0,0,0,.583.25.833.833,0,0,0,.583-.25l3.25-3.084a.792.792,0,0,0,.048-1.119C105.781,230.6,105.765,230.587,105.749,230.571Z" transform="translate(-95.992 -214.982)" fill="#fff"/>
        <path id="Path_48" data-name="Path 48" d="M208.966,256.034h-9.584a.833.833,0,0,0,0,1.667h9.584a.833.833,0,0,0,0-1.667Z" transform="translate(-189.388 -238.679)" fill="#fff"/>
        <path id="Path_49" data-name="Path 49" d="M105.749,146.979a.833.833,0,0,0-1.167-.042l-2.667,2.542-1.125-1.167a.833.833,0,0,0-1.167-.042.875.875,0,0,0,0,1.208l1.708,1.75a.75.75,0,0,0,.583.25.833.833,0,0,0,.583-.25l3.25-3.084a.792.792,0,0,0,.048-1.119C105.781,147.011,105.765,146.995,105.749,146.979Z" transform="translate(-95.992 -136.954)" fill="#fff"/>
        <path id="Path_50" data-name="Path 50" d="M208.966,172.442h-9.584a.833.833,0,0,0,0,1.667h9.584a.833.833,0,0,0,0-1.667Z" transform="translate(-189.388 -160.753)" fill="#fff"/>
        <path id="Path_51" data-name="Path 51" d="M105.749,314.163a.833.833,0,0,0-1.167-.042l-2.667,2.542L100.79,315.5a.833.833,0,0,0-1.167-.042.875.875,0,0,0,0,1.208l1.708,1.75a.75.75,0,0,0,.583.25.833.833,0,0,0,.583-.25l3.25-3.084a.792.792,0,0,0,.048-1.119C105.781,314.194,105.765,314.178,105.749,314.163Z" transform="translate(-95.992 -293.872)" fill="#fff"/>
        <path id="Path_52" data-name="Path 52" d="M208.966,339.626h-9.584a.833.833,0,1,0,0,1.667h9.584a.833.833,0,1,0,0-1.667Z" transform="translate(-189.388 -316.605)" fill="#fff"/>
      </g>
    </g>
  </g>
</svg>
