<svg id="money" xmlns="http://www.w3.org/2000/svg" width="34.436" height="23.363" viewBox="0 0 34.436 23.363">
  <g id="Group_3" data-name="Group 3" transform="translate(0 0)">
    <path id="Path_18" data-name="Path 18" d="M92.156,282.056a.526.526,0,0,0,0-1.053H89.675a.526.526,0,0,0,0,1.053Z" transform="translate(-83.181 -267.666)" fill="#fff"/>
    <path id="Path_19" data-name="Path 19" d="M298.846,282.056a.526.526,0,0,0,0-1.053h-2.481a.526.526,0,0,0,0,1.053Z" transform="translate(-276.036 -267.666)" fill="#fff"/>
    <path id="Path_21" data-name="Path 21" d="M62.5,193.809a1.633,1.633,0,0,1-1.48-1.618.636.636,0,0,0-.635-.636H40.429a.635.635,0,0,0-.635.637,1.633,1.633,0,0,1-1.48,1.617.637.637,0,0,0-.578.632v2.686a.526.526,0,1,0,1.053,0V194.8a2.7,2.7,0,0,0,2.025-2.188H60a2.7,2.7,0,0,0,2.025,2.188v7.176a2.7,2.7,0,0,0-2.057,2.66H40.846a2.7,2.7,0,0,0-2.057-2.66v-2.383a.526.526,0,0,0-1.053,0v2.738a.637.637,0,0,0,.577.632,1.623,1.623,0,0,1,1.444,1.959.634.634,0,0,0,.62.768H60.434a.634.634,0,0,0,.62-.768,1.623,1.623,0,0,1,1.444-1.959.637.637,0,0,0,.578-.632v-7.885A.637.637,0,0,0,62.5,193.809Z" transform="translate(-35.088 -184.904)" fill="#fff"/>
    <path id="Path_22" data-name="Path 22" d="M33.932,90.893a.5.5,0,0,0,.5-.5V84.057A1.738,1.738,0,0,0,32.7,82.321H6.812a1.738,1.738,0,0,0-1.736,1.736v.7h-.8a1.738,1.738,0,0,0-1.736,1.736v.7h-.8A1.738,1.738,0,0,0,0,88.928v15.02a1.738,1.738,0,0,0,1.736,1.736H27.624a1.738,1.738,0,0,0,1.736-1.736v-.7h.8a1.738,1.738,0,0,0,1.736-1.736v-.7h.8a1.738,1.738,0,0,0,1.736-1.736V92.792a.5.5,0,0,0-1.009,0v6.285a.728.728,0,0,1-.727.727h-.8V86.493a1.738,1.738,0,0,0-1.736-1.736H6.085v-.7a.728.728,0,0,1,.727-.727H32.7a.728.728,0,0,1,.727.727v6.331A.5.5,0,0,0,33.932,90.893Zm-5.581,13.055a.728.728,0,0,1-.727.727H1.736a.727.727,0,0,1-.727-.727V88.928a.728.728,0,0,1,.727-.727H27.624a.728.728,0,0,1,.727.727Zm2.538-17.455v15.02a.728.728,0,0,1-.727.727h-.8V88.928a1.738,1.738,0,0,0-1.736-1.736H3.547v-.7a.728.728,0,0,1,.727-.727H30.162A.728.728,0,0,1,30.889,86.493Z" transform="translate(0 -82.321)" fill="#fff"/>
  </g>
</svg>
