<svg xmlns="http://www.w3.org/2000/svg" width="21" height="30.545" viewBox="0 0 21 30.545">
  <g id="notification" transform="translate(-80)">
    <path id="Path_2" data-name="Path 2" d="M128.4,81.273H112.965a.938.938,0,0,1-.965-.909V72.182a8.7,8.7,0,0,1,17.364,0v8.182A.938.938,0,0,1,128.4,81.273Zm-14.47-1.818h13.505V72.182a6.764,6.764,0,0,0-13.505,0Z" transform="translate(-30.182 -60.364)" fill="#9e9b9b"/>
    <path id="Path_3" data-name="Path 3" d="M98.136,341.455H82.864a2.731,2.731,0,1,1,0-5.455H98.136a2.731,2.731,0,1,1,0,5.455Zm-15.273-3.636a.91.91,0,1,0,0,1.818H98.136a.91.91,0,1,0,0-1.818Z" transform="translate(0 -315.734)" fill="#9e9b9b"/>
    <path id="Path_4" data-name="Path 4" d="M240.909,5.455A.909.909,0,0,1,240,4.545V2.273a2.273,2.273,0,0,1,4.545,0,.909.909,0,0,1-1.818,0,.455.455,0,1,0-.909,0V4.545A.909.909,0,0,1,240.909,5.455Z" transform="translate(-150.321 0)" fill="#9e9b9b"/>
    <path id="Path_5" data-name="Path 5" d="M195.636,406.364a3.636,3.636,0,0,1-2.709-6.061.909.909,0,0,1,.677-.3h4.065a.909.909,0,0,1,.677.3,3.636,3.636,0,0,1-2.709,6.061Zm-1.575-4.545a1.818,1.818,0,1,0,3.15,0Z" transform="translate(-105.136 -375.818)" fill="#9e9b9b"/>
  </g>
</svg>
