<svg xmlns="http://www.w3.org/2000/svg" width="28.217" height="30" viewBox="0 0 28.217 30">
  <path id="setting" d="M42.372,20.68l-2.1,3.639a.5.5,0,0,1-.622.214l-3.093-1.249a.5.5,0,1,1,.376-.93l2.689,1.085,1.665-2.884L39,18.773a.5.5,0,0,1-.171-.542,11.042,11.042,0,0,0,0-6.46A.5.5,0,0,1,39,11.228l2.282-1.784L39.62,6.56,36.931,7.645a.5.5,0,0,1-.555-.124,10.931,10.931,0,0,0-5.591-3.231.5.5,0,0,1-.385-.419L30,1H26.665l-.4,2.868a.5.5,0,0,1-.385.419,10.931,10.931,0,0,0-5.591,3.231.5.5,0,0,1-.555.124L17.042,6.559,15.376,9.444l2.282,1.784a.5.5,0,0,1,.171.542,11.042,11.042,0,0,0,0,6.46.5.5,0,0,1-.171.542l-2.282,1.784,1.665,2.884,2.689-1.085a.5.5,0,0,1,.555.124,10.931,10.931,0,0,0,5.591,3.231.5.5,0,0,1,.385.419l.4,2.868H30l.4-2.868a.5.5,0,0,1,.385-.419,10.9,10.9,0,0,0,3.322-1.365.5.5,0,0,1,.528.853,11.9,11.9,0,0,1-3.289,1.408l-.417,2.963a.5.5,0,0,1-.5.432h-4.2a.5.5,0,0,1-.5-.432l-.417-2.963a11.922,11.922,0,0,1-5.525-3.193l-2.778,1.121a.5.5,0,0,1-.622-.214l-2.1-3.639a.5.5,0,0,1,.125-.646l2.357-1.843a12.054,12.054,0,0,1,0-6.383L14.415,9.966a.5.5,0,0,1-.125-.646l2.1-3.639a.5.5,0,0,1,.622-.214l2.778,1.121a11.922,11.922,0,0,1,5.525-3.193L25.733.431a.5.5,0,0,1,.5-.431h4.2a.5.5,0,0,1,.5.432l.417,2.963a11.922,11.922,0,0,1,5.525,3.193l2.778-1.121a.5.5,0,0,1,.622.214l2.1,3.639a.5.5,0,0,1-.125.646l-2.357,1.843a12.054,12.054,0,0,1,0,6.383l2.357,1.843a.5.5,0,0,1,.125.646ZM27.509,17.386l2.508-4.264a.5.5,0,1,0-.865-.509l-2.508,4.264a.5.5,0,0,0,.865.509ZM25.55,13.077a.5.5,0,0,0-.709,0l-1.568,1.568a.5.5,0,0,0,0,.709l1.568,1.568a.5.5,0,0,0,.709-.709L24.337,15l1.214-1.214A.5.5,0,0,0,25.55,13.077ZM31.4,17.07a.5.5,0,0,0,.355-.147l.7-.7.866-.866a.5.5,0,0,0,0-.709l-1.568-1.568a.5.5,0,1,0-.709.709L32.262,15l-1.214,1.214a.5.5,0,0,0,.355.856ZM25.4,23.007a8.525,8.525,0,1,0-2.966-1.848.5.5,0,1,0,.694-.725,7.533,7.533,0,1,1,2.617,1.63.5.5,0,1,0-.345.942Z" transform="translate(-14.222 0)" fill="#fff"/>
</svg>
