<svg id="speedometer" xmlns="http://www.w3.org/2000/svg" width="30" height="30" viewBox="0 0 30 30">
  <path id="Path_23" data-name="Path 23" d="M17,2A15,15,0,1,0,32,17,15,15,0,0,0,17,2Zm0,29A14,14,0,1,1,31,17,14,14,0,0,1,17,31Z" transform="translate(-2 -2)" fill="#fff"/>
  <path id="Path_24" data-name="Path 24" d="M31.966,47H24.531a.531.531,0,0,0-.531.531v4.248a.531.531,0,0,0,.531.531h7.435a.531.531,0,0,0,.531-.531V47.531A.531.531,0,0,0,31.966,47Zm-.531,4.248H25.062V48.062h6.373Z" transform="translate(-13.248 -24.966)" fill="#fff"/>
  <path id="Path_25" data-name="Path 25" d="M19.345,7C12.529,7.006,7.006,12.947,7,20.276a.513.513,0,0,0,.494.531h3.95a.513.513,0,0,0,.494-.531,8.029,8.029,0,0,1,4.232-7.2,6.989,6.989,0,0,1,7.861,1.033l-3.2,2.815a3.332,3.332,0,0,0-4.338,1.212,3.952,3.952,0,0,0,.379,4.8,3.3,3.3,0,0,0,4.466.408,3.912,3.912,0,0,0,1.127-4.666l2.617-3.447a8.3,8.3,0,0,1,1.674,5.04.513.513,0,0,0,.494.531H31.2a.513.513,0,0,0,.494-.531C31.683,12.947,26.16,7.006,19.345,7Zm-8.38,12.745H8a12.9,12.9,0,0,1,1.274-5.109l2.578,1.6a9.417,9.417,0,0,0-.884,3.51Zm1.378-4.429-2.573-1.6a11.857,11.857,0,0,1,3.476-3.739l1.481,2.761A8.826,8.826,0,0,0,12.343,15.316Zm6.508-4.041a7.883,7.883,0,0,0-3.264.935L14.1,9.443a10.715,10.715,0,0,1,4.75-1.37Zm.494,11.657a2.662,2.662,0,0,1,0-5.311,2.5,2.5,0,0,1,.6.08l-1.61,1.413a.238.238,0,0,0-.035.037,1.672,1.672,0,0,0-.425,1.56,1.541,1.541,0,0,0,1.069,1.149,1.416,1.416,0,0,0,1.45-.458.237.237,0,0,0,.035-.037l1.313-1.731a3.082,3.082,0,0,1,.074.643A2.567,2.567,0,0,1,19.345,22.932Zm.336-2.262a.488.488,0,0,1-.686-.016.547.547,0,0,1-.143-.377.562.562,0,0,1,.128-.361l3.8-3.335Zm.158-9.394v-3.2a10.715,10.715,0,0,1,4.75,1.37L23.1,12.21a7.883,7.883,0,0,0-3.264-.935Zm6.508,4.041a8.883,8.883,0,0,0-.637-.913l.928-1.227a.557.557,0,0,0-.03-.711.466.466,0,0,0-.661-.032l-1.146,1a8.936,8.936,0,0,0-.839-.7l1.481-2.761a11.857,11.857,0,0,1,3.476,3.739Zm1.378,4.429a9.417,9.417,0,0,0-.884-3.51l2.578-1.6a12.9,12.9,0,0,1,1.274,5.109Z" transform="translate(-4.345 -4.345)" fill="#fff"/>
  <path id="Path_26" data-name="Path 26" d="M42.593,39a1.593,1.593,0,1,0,1.593,1.593A1.593,1.593,0,0,0,42.593,39Zm0,2.124a.531.531,0,1,1,.531-.531A.531.531,0,0,1,42.593,41.124Z" transform="translate(-21.635 -20.628)" fill="#fff"/>
  <path id="Path_27" data-name="Path 27" d="M50.593,39a1.593,1.593,0,1,0,1.593,1.593A1.593,1.593,0,0,0,50.593,39Zm0,2.124a.531.531,0,1,1,.531-.531A.531.531,0,0,1,50.593,41.124Z" transform="translate(-25.904 -20.628)" fill="#fff"/>
  <path id="Path_28" data-name="Path 28" d="M18.593,39a1.593,1.593,0,1,0,1.593,1.593A1.593,1.593,0,0,0,18.593,39Zm0,2.124a.531.531,0,1,1,.531-.531A.531.531,0,0,1,18.593,41.124Z" transform="translate(-9.552 -20.628)" fill="#fff"/>
  <path id="Path_29" data-name="Path 29" d="M10.593,39a1.593,1.593,0,1,0,1.593,1.593A1.593,1.593,0,0,0,10.593,39Zm0,2.124a.531.531,0,1,1,.531-.531A.531.531,0,0,1,10.593,41.124Z" transform="translate(-5.283 -20.628)" fill="#fff"/>
  <path id="Path_30" data-name="Path 30" d="M25,41h1.062v1.062H25Z" transform="translate(-13.525 -21.542)" fill="#fff"/>
  <path id="Path_31" data-name="Path 31" d="M29,41h2.655v1.062H29Z" transform="translate(-15.576 -21.542)" fill="#fff"/>
  <path id="Path_32" data-name="Path 32" d="M36,41h1.062v1.062H36Z" transform="translate(-19.036 -21.542)" fill="#fff"/>
</svg>
