<svg xmlns="http://www.w3.org/2000/svg" width="23" height="29.628" viewBox="0 0 23 29.628">
  <path id="worker_2_" data-name="worker (2)" d="M52.778,45.612A9.98,9.98,0,0,0,49.66,43.5l-.007,0a9.891,9.891,0,0,0-1.735-.557,7.234,7.234,0,0,0,3.521-6.2v-1.09h.93A.643.643,0,0,0,53.011,35v-2.1a.643.643,0,0,0-.643-.643H52.21a7.973,7.973,0,0,0-6.278-7.2,1.777,1.777,0,0,0-3.464,0,8.01,8.01,0,0,0-6.277,7.2h-.158a.643.643,0,0,0-.643.643V35a.643.643,0,0,0,.643.643h.93v1.09a7.235,7.235,0,0,0,3.521,6.2,9.906,9.906,0,0,0-1.736.554h-.007a9.974,9.974,0,0,0-6.04,9.174.643.643,0,1,0,1.286,0,8.684,8.684,0,0,1,4.363-7.531l0,7.531a.643.643,0,0,0,1.286,0V44.522c.143-.053.286-.1.43-.147v5.417a.643.643,0,0,0,.643.643H47.69a.643.643,0,0,0,.643-.643V44.375c.144.045.287.094.43.147v8.143a.643.643,0,1,0,1.286,0V45.133a8.658,8.658,0,0,1,4.365,7.532.643.643,0,0,0,1.286,0,9.91,9.91,0,0,0-2.922-7.054ZM43.7,25.462a.5.5,0,0,1,.992,0V28.07a.5.5,0,1,1-.992,0Zm-1.286.929v1.679a1.782,1.782,0,0,0,3.564,0V26.4a6.81,6.81,0,0,1,4.939,5.866H37.479a6.732,6.732,0,0,1,4.94-5.872Zm-5.742,7.158h15.05v.811H36.675Zm1.573,3.188v-1.09h11.9v1.09a5.952,5.952,0,0,1-11.9,0Zm3.1,12.413v-5.07a8.717,8.717,0,0,1,1.326-.1h3.042a8.735,8.735,0,0,1,1.326.1v5.07Z" transform="translate(-32.7 -23.68)" fill="#9e9b9b"/>
</svg>
