<svg id="XMLID_1389_" xmlns="http://www.w3.org/2000/svg" width="30" height="30" viewBox="0 0 30 30">
  <g id="XMLID_1333_">
    <path id="XMLID_1334_" d="M59.949,192H51.17a.67.67,0,0,0,0,1.34h8.778a.67.67,0,1,0,0-1.34Z" transform="translate(-47.116 -180.816)" fill="#fff"/>
    <path id="XMLID_1341_" d="M247.51,176.021a2.01,2.01,0,1,0-2.01-2.01A2.013,2.013,0,0,0,247.51,176.021Zm0-2.68a.67.67,0,1,1-.67.67A.671.671,0,0,1,247.51,173.34Z" transform="translate(-231.39 -162.114)" fill="#fff"/>
    <path id="XMLID_1344_" d="M335.51,176.021a2.01,2.01,0,1,0-2.01-2.01A2.013,2.013,0,0,0,335.51,176.021Zm0-2.68a.67.67,0,1,1-.67.67A.671.671,0,0,1,335.51,173.34Z" transform="translate(-314.332 -162.114)" fill="#fff"/>
    <path id="XMLID_1346_" d="M51.17,65.34h8.778a.67.67,0,1,0,0-1.34H51.17a.67.67,0,1,0,0,1.34Z" transform="translate(-47.116 -59.711)" fill="#fff"/>
    <path id="XMLID_1350_" d="M247.51,48.021a2.01,2.01,0,1,0-2.01-2.01A2.013,2.013,0,0,0,247.51,48.021Zm0-2.68a.67.67,0,1,1-.67.67A.671.671,0,0,1,247.51,45.34Z" transform="translate(-231.39 -41.052)" fill="#fff"/>
    <path id="XMLID_1353_" d="M335.51,48.021a2.01,2.01,0,1,0-2.01-2.01A2.013,2.013,0,0,0,335.51,48.021Zm0-2.68a.67.67,0,1,1-.67.67A.671.671,0,0,1,335.51,45.34Z" transform="translate(-314.332 -41.052)" fill="#fff"/>
    <path id="XMLID_1355_" d="M59.949,320H51.17a.67.67,0,1,0,0,1.34h8.778a.67.67,0,1,0,0-1.34Z" transform="translate(-47.116 -301.359)" fill="#fff"/>
    <path id="XMLID_1369_" d="M25.66,15.7c-.03-.039-.06-.078-.093-.114a1.75,1.75,0,0,0,.449-1.171V9.258a1.75,1.75,0,0,0-.449-1.172,1.751,1.751,0,0,0,.449-1.172V1.758A1.76,1.76,0,0,0,24.258,0H1.758A1.76,1.76,0,0,0,0,1.758V6.914A1.75,1.75,0,0,0,.449,8.086,1.75,1.75,0,0,0,0,9.258v5.156a1.75,1.75,0,0,0,.449,1.172A1.75,1.75,0,0,0,0,16.758v5.156a1.76,1.76,0,0,0,1.758,1.758H15.092A7.5,7.5,0,1,0,25.66,15.7Zm3.168,6.8a6.3,6.3,0,0,1-1.354,3.908,5.619,5.619,0,0,0-1.614-1.943,5.551,5.551,0,0,0-1.4-.775,2.761,2.761,0,1,0-3.919,0,5.55,5.55,0,0,0-1.405.778,5.619,5.619,0,0,0-1.609,1.94,6.327,6.327,0,1,1,11.3-3.908Zm-7.917-.752a1.589,1.589,0,0,1,3.178,0h0a1.589,1.589,0,0,1-3.178,0ZM1.172,1.758a.587.587,0,0,1,.586-.586h22.5a.587.587,0,0,1,.586.586V6.914a.587.587,0,0,1-.586.586H15.563a.586.586,0,0,0,0,1.172h8.695a.587.587,0,0,1,.586.586v5.156a.587.587,0,0,1-.586.586H1.758a.587.587,0,0,1-.586-.586V9.258a.587.587,0,0,1,.586-.586H10.29a.586.586,0,1,0,0-1.172H1.758a.587.587,0,0,1-.586-.586ZM1.758,22.5a.587.587,0,0,1-.586-.586V16.758a.587.587,0,0,1,.586-.586H18.479A7.5,7.5,0,0,0,15,22.5ZM18.4,27.317a4.395,4.395,0,0,1,8.2,0,6.315,6.315,0,0,1-8.2,0Z" fill="#fff"/>
    <path id="XMLID_1404_" d="M211.279,129.34a.671.671,0,1,0-.474-.2A.675.675,0,0,0,211.279,129.34Z" transform="translate(-198.341 -120.544)" fill="#fff"/>
  </g>
</svg>
